<svg xmlns="http://www.w3.org/2000/svg" xmlns:xlink="http://www.w3.org/1999/xlink" viewBox="0 0 64 80" version="1.1" x="0px" y="0px"><title>1</title><desc>Created with Sketch.</desc><g stroke="none" stroke-width="1" fill="none" fill-rule="evenodd"><g fill="#000000"><path d="M34,30 L44,30 L44,34 L34,34 L34,44 L30,44 L30,34 L20,34 L20,30 L30,30 L30,20 L34,20 L34,30 Z M32,64 C14.326888,64 0,49.673112 0,32 C0,14.326888 14.326888,0 32,0 C49.673112,0 64,14.326888 64,32 C64,49.673112 49.673112,64 32,64 Z M32,59 C46.9116882,59 59,46.9116882 59,32 C59,17.0883118 46.9116882,5 32,5 C17.0883118,5 5,17.0883118 5,32 C5,46.9116882 17.0883118,59 32,59 Z"/></g></g><text x="0" y="79" fill="#000000" font-size="5px" font-weight="bold" font-family="'Helvetica Neue', Helvetica, Arial-Unicode, Arial, Sans-serif">Created by Lero Keller</text><text x="0" y="84" fill="#000000" font-size="5px" font-weight="bold" font-family="'Helvetica Neue', Helvetica, Arial-Unicode, Arial, Sans-serif">from the Noun Project</text></svg>